<?xml version="1.0" encoding="utf-8"?>
<!-- Generator: Adobe Illustrator 21.1.0, SVG Export Plug-In . SVG Version: 6.00 Build 0)  -->
<svg version="1.1" id="Button" xmlns="http://www.w3.org/2000/svg" xmlns:xlink="http://www.w3.org/1999/xlink" x="0px" y="0px"
	 viewBox="0 0 33.3 33.6" style="enable-background:new 0 0 33.3 33.6;" xml:space="preserve">
<style type="text/css">
	.st0{fill:#FFFFFF;stroke:#DADADA;stroke-width:2;}
	.st1{fill:#DADADA;}
</style>
<path id="Button-2" class="st0" d="M16.8,1h-0.4c8.7,0,15.8,7.1,15.8,15.8c0,0,0,0,0,0l0,0c0,8.7-7.1,15.8-15.8,15.8h0.4
	C8.1,32.6,1,25.5,1,16.8l0,0C1,8.1,8.1,1,16.8,1L16.8,1z"/>
<path id="Plus_Icon" class="st1" d="M22.8,16.1H18c-0.2,0-0.3-0.2-0.4-0.4v-4.9c0-0.2-0.1-0.3-0.3-0.4c0,0,0,0,0,0h-0.7
	c-0.2,0-0.3,0.2-0.4,0.4v4.9c0,0.2-0.2,0.3-0.4,0.4h-4.7c-0.2,0-0.3,0.2-0.4,0.4v0.7c0,0.2,0.2,0.4,0.4,0.4h4.7
	c0.2,0,0.3,0.2,0.4,0.4v4.6c0,0.2,0.2,0.3,0.4,0.4h0.7c0.2,0,0.3-0.2,0.4-0.3c0,0,0,0,0,0v-4.6c0-0.2,0.2-0.3,0.4-0.4h4.7
	c0.2,0,0.3-0.2,0.4-0.3c0,0,0,0,0,0v-0.7C23.1,16.2,23,16.1,22.8,16.1C22.8,16.1,22.8,16.1,22.8,16.1L22.8,16.1L22.8,16.1z"/>
</svg>
