<?xml version="1.0" encoding="utf-8"?>
<!-- Generator: Adobe Illustrator 21.1.0, SVG Export Plug-In . SVG Version: 6.00 Build 0)  -->
<svg version="1.1" id="Layer_1" xmlns="http://www.w3.org/2000/svg" xmlns:xlink="http://www.w3.org/1999/xlink" x="0px" y="0px"
	 viewBox="0 0 27.9 29.5" style="enable-background:new 0 0 27.9 29.5;" xml:space="preserve">
<style type="text/css">
	.st0{fill:#DADADA;}
</style>
<path id="Comment_Icon" class="st0" d="M14,0C6.3,0,0,5.6,0,12.5c0,3.3,1.4,6.4,3.9,8.6c0.2,0.2,0.3,0.4,0.3,0.6v6.8
	c-0.1,0.4,0.1,0.9,0.6,1c0.2,0.1,0.5,0,0.7-0.1l5.4-4.5c0.2-0.2,0.4-0.2,0.6-0.2c0.8,0.1,1.7,0.2,2.5,0.2c7.7,0,13.9-5.6,13.9-12.5
	S21.6,0,14,0L14,0L14,0z M14,21.6c-5.9,0-10.7-4.1-10.7-9.1S8.1,3.3,14,3.3s10.7,4.1,10.7,9.1S19.8,21.6,14,21.6L14,21.6z
	 M10.8,12.7c0,0.9-0.8,1.6-1.7,1.6s-1.6-0.8-1.6-1.7c0-0.9,0.7-1.6,1.6-1.6C10.1,11,10.8,11.8,10.8,12.7
	C10.8,12.7,10.8,12.7,10.8,12.7L10.8,12.7z M15.7,12.7c0,0.9-0.8,1.6-1.7,1.6s-1.6-0.8-1.6-1.7c0-0.9,0.7-1.6,1.6-1.6
	C15,11.1,15.7,11.8,15.7,12.7L15.7,12.7z M20.6,12.7c0,0.9-0.8,1.6-1.7,1.6s-1.6-0.8-1.6-1.7c0-0.9,0.7-1.6,1.6-1.6
	C19.9,11.1,20.6,11.8,20.6,12.7L20.6,12.7z"/>
</svg>
